<mxfile host="app.diagrams.net" modified="2022-03-28T01:42:39.401Z" agent="5.0 (Windows NT 10.0; Win64; x64) AppleWebKit/537.36 (KHTML, like Gecko) Chrome/99.0.4844.82 Safari/537.36" etag="0CN_ChaejrxCrDm6aFj5" version="14.8.6" type="github">
  <diagram id="CeY9jq1zKIPOgEBvtScC" name="Page-1">
    <mxGraphModel dx="539" dy="328" grid="1" gridSize="10" guides="1" tooltips="1" connect="1" arrows="1" fold="1" page="1" pageScale="1" pageWidth="827" pageHeight="1169" math="0" shadow="0">
      <root>
        <mxCell id="0" />
        <mxCell id="1" parent="0" />
        <mxCell id="9wMG7oPLqHiBCoxBqwui-1" value="打开小程序" style="rounded=1;whiteSpace=wrap;html=1;" vertex="1" parent="1">
          <mxGeometry x="330" y="100" width="120" height="60" as="geometry" />
        </mxCell>
        <mxCell id="9wMG7oPLqHiBCoxBqwui-2" value="是否已经注册" style="rhombus;whiteSpace=wrap;html=1;" vertex="1" parent="1">
          <mxGeometry x="307.5" y="200" width="165" height="70" as="geometry" />
        </mxCell>
        <mxCell id="9wMG7oPLqHiBCoxBqwui-3" value="注册" style="rounded=1;whiteSpace=wrap;html=1;" vertex="1" parent="1">
          <mxGeometry x="180" y="207.5" width="90" height="55" as="geometry" />
        </mxCell>
        <mxCell id="9wMG7oPLqHiBCoxBqwui-5" value="" style="endArrow=classic;html=1;exitX=0.5;exitY=1;exitDx=0;exitDy=0;" edge="1" parent="1" source="9wMG7oPLqHiBCoxBqwui-1">
          <mxGeometry width="50" height="50" relative="1" as="geometry">
            <mxPoint x="380" y="320" as="sourcePoint" />
            <mxPoint x="390" y="200" as="targetPoint" />
          </mxGeometry>
        </mxCell>
        <mxCell id="9wMG7oPLqHiBCoxBqwui-9" value="" style="endArrow=classic;html=1;exitX=0;exitY=0.5;exitDx=0;exitDy=0;" edge="1" parent="1" source="9wMG7oPLqHiBCoxBqwui-2" target="9wMG7oPLqHiBCoxBqwui-3">
          <mxGeometry width="50" height="50" relative="1" as="geometry">
            <mxPoint x="240" y="260" as="sourcePoint" />
            <mxPoint x="290" y="210" as="targetPoint" />
          </mxGeometry>
        </mxCell>
        <mxCell id="9wMG7oPLqHiBCoxBqwui-11" value="账号登陆" style="rounded=1;whiteSpace=wrap;html=1;" vertex="1" parent="1">
          <mxGeometry x="330" y="300" width="120" height="60" as="geometry" />
        </mxCell>
        <mxCell id="9wMG7oPLqHiBCoxBqwui-12" value="" style="endArrow=classic;html=1;exitX=0.5;exitY=1;exitDx=0;exitDy=0;entryX=0;entryY=0.5;entryDx=0;entryDy=0;" edge="1" parent="1" source="9wMG7oPLqHiBCoxBqwui-3" target="9wMG7oPLqHiBCoxBqwui-11">
          <mxGeometry width="50" height="50" relative="1" as="geometry">
            <mxPoint x="290" y="330" as="sourcePoint" />
            <mxPoint x="340" y="280" as="targetPoint" />
            <Array as="points">
              <mxPoint x="225" y="330" />
            </Array>
          </mxGeometry>
        </mxCell>
        <mxCell id="9wMG7oPLqHiBCoxBqwui-13" value="" style="endArrow=classic;html=1;exitX=0.5;exitY=1;exitDx=0;exitDy=0;" edge="1" parent="1" source="9wMG7oPLqHiBCoxBqwui-2" target="9wMG7oPLqHiBCoxBqwui-11">
          <mxGeometry width="50" height="50" relative="1" as="geometry">
            <mxPoint x="290" y="330" as="sourcePoint" />
            <mxPoint x="340" y="280" as="targetPoint" />
          </mxGeometry>
        </mxCell>
        <mxCell id="9wMG7oPLqHiBCoxBqwui-14" value="用户" style="rounded=1;whiteSpace=wrap;html=1;" vertex="1" parent="1">
          <mxGeometry x="187.5" y="420" width="120" height="60" as="geometry" />
        </mxCell>
        <mxCell id="9wMG7oPLqHiBCoxBqwui-15" value="管理员" style="rounded=1;whiteSpace=wrap;html=1;" vertex="1" parent="1">
          <mxGeometry x="490" y="420" width="120" height="60" as="geometry" />
        </mxCell>
        <mxCell id="9wMG7oPLqHiBCoxBqwui-16" value="" style="endArrow=classic;html=1;exitX=0.5;exitY=1;exitDx=0;exitDy=0;entryX=0.457;entryY=0.018;entryDx=0;entryDy=0;entryPerimeter=0;" edge="1" parent="1" source="9wMG7oPLqHiBCoxBqwui-11" target="9wMG7oPLqHiBCoxBqwui-14">
          <mxGeometry width="50" height="50" relative="1" as="geometry">
            <mxPoint x="360" y="440" as="sourcePoint" />
            <mxPoint x="410" y="390" as="targetPoint" />
            <Array as="points">
              <mxPoint x="390" y="380" />
              <mxPoint x="242" y="380" />
            </Array>
          </mxGeometry>
        </mxCell>
        <mxCell id="9wMG7oPLqHiBCoxBqwui-17" value="" style="endArrow=classic;html=1;entryX=0.5;entryY=0;entryDx=0;entryDy=0;" edge="1" parent="1" target="9wMG7oPLqHiBCoxBqwui-15">
          <mxGeometry width="50" height="50" relative="1" as="geometry">
            <mxPoint x="390" y="360" as="sourcePoint" />
            <mxPoint x="204.84000000000003" y="431.0799999999999" as="targetPoint" />
            <Array as="points">
              <mxPoint x="390" y="380" />
              <mxPoint x="550" y="380" />
            </Array>
          </mxGeometry>
        </mxCell>
      </root>
    </mxGraphModel>
  </diagram>
</mxfile>
